<svg id="visual" viewBox="0 0 900 300" width="900" height="300" xmlns="http://www.w3.org/2000/svg" xmlns:xlink="http://www.w3.org/1999/xlink" version="1.1"><rect x="0" y="0" width="900" height="300" fill="#001220"></rect><path d="M0 90L16.7 96.3C33.3 102.7 66.7 115.3 100 123.3C133.3 131.3 166.7 134.7 200 143.2C233.3 151.7 266.7 165.3 300 168.5C333.3 171.7 366.7 164.3 400 151.5C433.3 138.7 466.7 120.3 500 120.8C533.3 121.3 566.7 140.7 600 139.8C633.3 139 666.7 118 700 117.3C733.3 116.7 766.7 136.3 800 142.3C833.3 148.3 866.7 140.7 883.3 136.8L900 133L900 301L883.3 301C866.7 301 833.3 301 800 301C766.7 301 733.3 301 700 301C666.7 301 633.3 301 600 301C566.7 301 533.3 301 500 301C466.7 301 433.3 301 400 301C366.7 301 333.3 301 300 301C266.7 301 233.3 301 200 301C166.7 301 133.3 301 100 301C66.7 301 33.3 301 16.7 301L0 301Z" fill="#fa7268"></path><path d="M0 191L16.7 190.2C33.3 189.3 66.7 187.7 100 182.2C133.3 176.7 166.7 167.3 200 172C233.3 176.7 266.7 195.3 300 197.5C333.3 199.7 366.7 185.3 400 182.7C433.3 180 466.7 189 500 188.8C533.3 188.7 566.7 179.3 600 177.3C633.3 175.3 666.7 180.7 700 174.7C733.3 168.7 766.7 151.3 800 145.7C833.3 140 866.7 146 883.3 149L900 152L900 301L883.3 301C866.7 301 833.3 301 800 301C766.7 301 733.3 301 700 301C666.7 301 633.3 301 600 301C566.7 301 533.3 301 500 301C466.7 301 433.3 301 400 301C366.7 301 333.3 301 300 301C266.7 301 233.3 301 200 301C166.7 301 133.3 301 100 301C66.7 301 33.3 301 16.7 301L0 301Z" fill="#eb5967"></path><path d="M0 176L16.7 183.5C33.3 191 66.7 206 100 208.3C133.3 210.7 166.7 200.3 200 195C233.3 189.7 266.7 189.3 300 191.3C333.3 193.3 366.7 197.7 400 200C433.3 202.3 466.7 202.7 500 197.8C533.3 193 566.7 183 600 190.7C633.3 198.3 666.7 223.7 700 226.2C733.3 228.7 766.7 208.3 800 196.2C833.3 184 866.7 180 883.3 178L900 176L900 301L883.3 301C866.7 301 833.3 301 800 301C766.7 301 733.3 301 700 301C666.7 301 633.3 301 600 301C566.7 301 533.3 301 500 301C466.7 301 433.3 301 400 301C366.7 301 333.3 301 300 301C266.7 301 233.3 301 200 301C166.7 301 133.3 301 100 301C66.7 301 33.3 301 16.7 301L0 301Z" fill="#da3f67"></path><path d="M0 264L16.7 260C33.3 256 66.7 248 100 243C133.3 238 166.7 236 200 236C233.3 236 266.7 238 300 238C333.3 238 366.7 236 400 238.5C433.3 241 466.7 248 500 250C533.3 252 566.7 249 600 250.7C633.3 252.3 666.7 258.7 700 259.5C733.3 260.3 766.7 255.7 800 255C833.3 254.3 866.7 257.7 883.3 259.3L900 261L900 301L883.3 301C866.7 301 833.3 301 800 301C766.7 301 733.3 301 700 301C666.7 301 633.3 301 600 301C566.7 301 533.3 301 500 301C466.7 301 433.3 301 400 301C366.7 301 333.3 301 300 301C266.7 301 233.3 301 200 301C166.7 301 133.3 301 100 301C66.7 301 33.3 301 16.7 301L0 301Z" fill="#c62368"></path></svg>