<svg id="visual" viewBox="0 0 900 300" width="900" height="300" xmlns="http://www.w3.org/2000/svg" xmlns:xlink="http://www.w3.org/1999/xlink" version="1.1"><rect x="0" y="0" width="900" height="300" fill="#001220"></rect><path d="M0 134L16.7 136.8C33.3 139.7 66.7 145.3 100 143.7C133.3 142 166.7 133 200 136.5C233.3 140 266.7 156 300 158.5C333.3 161 366.7 150 400 140.8C433.3 131.7 466.7 124.3 500 127C533.3 129.7 566.7 142.3 600 152.2C633.3 162 666.7 169 700 169C733.3 169 766.7 162 800 153.3C833.3 144.7 866.7 134.3 883.3 129.2L900 124L900 301L883.3 301C866.7 301 833.3 301 800 301C766.7 301 733.3 301 700 301C666.7 301 633.3 301 600 301C566.7 301 533.3 301 500 301C466.7 301 433.3 301 400 301C366.7 301 333.3 301 300 301C266.7 301 233.3 301 200 301C166.7 301 133.3 301 100 301C66.7 301 33.3 301 16.7 301L0 301Z" fill="#fa7268"></path><path d="M0 200L16.7 195.7C33.3 191.3 66.7 182.7 100 172.5C133.3 162.3 166.7 150.7 200 148.3C233.3 146 266.7 153 300 165C333.3 177 366.7 194 400 199.5C433.3 205 466.7 199 500 185.7C533.3 172.3 566.7 151.7 600 143.2C633.3 134.7 666.7 138.3 700 151.3C733.3 164.3 766.7 186.7 800 195C833.3 203.3 866.7 197.7 883.3 194.8L900 192L900 301L883.3 301C866.7 301 833.3 301 800 301C766.7 301 733.3 301 700 301C666.7 301 633.3 301 600 301C566.7 301 533.3 301 500 301C466.7 301 433.3 301 400 301C366.7 301 333.3 301 300 301C266.7 301 233.3 301 200 301C166.7 301 133.3 301 100 301C66.7 301 33.3 301 16.7 301L0 301Z" fill="#eb5967"></path><path d="M0 221L16.7 223.8C33.3 226.7 66.7 232.3 100 233.8C133.3 235.3 166.7 232.7 200 223C233.3 213.3 266.7 196.7 300 190.7C333.3 184.7 366.7 189.3 400 195.5C433.3 201.7 466.7 209.3 500 214.7C533.3 220 566.7 223 600 226.8C633.3 230.7 666.7 235.3 700 235.3C733.3 235.3 766.7 230.7 800 227C833.3 223.3 866.7 220.7 883.3 219.3L900 218L900 301L883.3 301C866.7 301 833.3 301 800 301C766.7 301 733.3 301 700 301C666.7 301 633.3 301 600 301C566.7 301 533.3 301 500 301C466.7 301 433.3 301 400 301C366.7 301 333.3 301 300 301C266.7 301 233.3 301 200 301C166.7 301 133.3 301 100 301C66.7 301 33.3 301 16.7 301L0 301Z" fill="#da3f67"></path><path d="M0 261L16.7 259.5C33.3 258 66.7 255 100 255.8C133.3 256.7 166.7 261.3 200 264.2C233.3 267 266.7 268 300 267.8C333.3 267.7 366.7 266.3 400 268C433.3 269.7 466.7 274.3 500 268.2C533.3 262 566.7 245 600 244.2C633.3 243.3 666.7 258.7 700 264.2C733.3 269.7 766.7 265.3 800 258.8C833.3 252.3 866.7 243.7 883.3 239.3L900 235L900 301L883.3 301C866.7 301 833.3 301 800 301C766.7 301 733.3 301 700 301C666.7 301 633.3 301 600 301C566.7 301 533.3 301 500 301C466.7 301 433.3 301 400 301C366.7 301 333.3 301 300 301C266.7 301 233.3 301 200 301C166.7 301 133.3 301 100 301C66.7 301 33.3 301 16.7 301L0 301Z" fill="#c62368"></path></svg>